# xmcd CD database file
#
# Track frame offsets:
#	150
#	28146
#	66463
#	91883
#	120299
#	141246
#
# Disc length: 2158 seconds
#
# Revision: 3
# Processed by: cddbd v1.5.2PL0 Copyright (c) Steve Scherf et al.
# Submitted via: CDex 1.51
#
DISCID=4f086c06
DTITLE=B.B. KING - There Must Be a Better World Somewhere
DYEAR=1981
DGENRE=Blues
TTITLE0=Life Ain't Nothing But A Party
TTITLE1=Born Again Human
TTITLE2=There Must Be A Better World Somewhere
TTITLE3=The Victim
TTITLE4=More, More, More
TTITLE5=You're Going With Me
EXTD=YEAR: 1981
EXTT0=
EXTT1=
EXTT2=
EXTT3=
EXTT4=
EXTT5=
PLAYORDER=
